<svg width="137" height="19" viewBox="0 0 137 19" fill="none" xmlns="http://www.w3.org/2000/svg">
<path d="M5.472 4.368H0.096V1.2H14.736V4.368H9.36V18H5.472V4.368ZM33.4359 1.2V18H29.5479V11.112H21.9159V18H18.0279V1.2H21.9159V7.824H29.5479V1.2H33.4359ZM51.6188 14.88V18H38.6108V1.2H51.3068V4.32H42.4748V7.968H50.2748V10.992H42.4748V14.88H51.6188ZM63.9092 1.2H67.7972V14.832H76.2212V18H63.9092V1.2ZM87.4483 18.288C85.7043 18.288 84.1283 17.912 82.7203 17.16C81.3283 16.408 80.2323 15.376 79.4323 14.064C78.6483 12.736 78.2563 11.248 78.2563 9.6C78.2563 7.952 78.6483 6.472 79.4323 5.16C80.2323 3.832 81.3283 2.792 82.7203 2.04C84.1283 1.288 85.7043 0.912 87.4483 0.912C89.1923 0.912 90.7603 1.288 92.1523 2.04C93.5443 2.792 94.6403 3.832 95.4403 5.16C96.2403 6.472 96.6403 7.952 96.6403 9.6C96.6403 11.248 96.2403 12.736 95.4403 14.064C94.6403 15.376 93.5443 16.408 92.1523 17.16C90.7603 17.912 89.1923 18.288 87.4483 18.288ZM87.4483 14.976C88.4403 14.976 89.3363 14.752 90.1363 14.304C90.9363 13.84 91.5603 13.2 92.0083 12.384C92.4723 11.568 92.7043 10.64 92.7043 9.6C92.7043 8.56 92.4723 7.632 92.0083 6.816C91.5603 6 90.9363 5.368 90.1363 4.92C89.3363 4.456 88.4403 4.224 87.4483 4.224C86.4563 4.224 85.5603 4.456 84.7603 4.92C83.9603 5.368 83.3283 6 82.8643 6.816C82.4163 7.632 82.1923 8.56 82.1923 9.6C82.1923 10.64 82.4163 11.568 82.8643 12.384C83.3283 13.2 83.9603 13.84 84.7603 14.304C85.5603 14.752 86.4563 14.976 87.4483 14.976ZM108.898 18.288C107.154 18.288 105.578 17.912 104.17 17.16C102.778 16.408 101.682 15.376 100.882 14.064C100.098 12.736 99.7063 11.248 99.7063 9.6C99.7063 7.952 100.098 6.472 100.882 5.16C101.682 3.832 102.778 2.792 104.17 2.04C105.578 1.288 107.154 0.912 108.898 0.912C110.642 0.912 112.21 1.288 113.602 2.04C114.994 2.792 116.09 3.832 116.89 5.16C117.69 6.472 118.09 7.952 118.09 9.6C118.09 11.248 117.69 12.736 116.89 14.064C116.09 15.376 114.994 16.408 113.602 17.16C112.21 17.912 110.642 18.288 108.898 18.288ZM108.898 14.976C109.89 14.976 110.786 14.752 111.586 14.304C112.386 13.84 113.01 13.2 113.458 12.384C113.922 11.568 114.154 10.64 114.154 9.6C114.154 8.56 113.922 7.632 113.458 6.816C113.01 6 112.386 5.368 111.586 4.92C110.786 4.456 109.89 4.224 108.898 4.224C107.906 4.224 107.01 4.456 106.21 4.92C105.41 5.368 104.778 6 104.314 6.816C103.866 7.632 103.642 8.56 103.642 9.6C103.642 10.64 103.866 11.568 104.314 12.384C104.778 13.2 105.41 13.84 106.21 14.304C107.01 14.752 107.906 14.976 108.898 14.976ZM129.484 1.2C130.972 1.2 132.26 1.448 133.348 1.944C134.452 2.44 135.3 3.144 135.892 4.056C136.484 4.968 136.78 6.048 136.78 7.296C136.78 8.528 136.484 9.608 135.892 10.536C135.3 11.448 134.452 12.152 133.348 12.648C132.26 13.128 130.972 13.368 129.484 13.368H126.1V18H122.212V1.2H129.484ZM129.268 10.2C130.436 10.2 131.324 9.952 131.932 9.456C132.54 8.944 132.844 8.224 132.844 7.296C132.844 6.352 132.54 5.632 131.932 5.136C131.324 4.624 130.436 4.368 129.268 4.368H126.1V10.2H129.268Z" fill="white"/>
</svg>
